<svg id="Calque_1" data-name="Calque 1" xmlns="http://www.w3.org/2000/svg" viewBox="0 0 1920 406.15"><defs><style>.cls-1{fill:#fff;}</style></defs><path class="cls-1" d="M592.94,14.5c0,7.28-5.27,12.55-12.19,12.55s-12.19-5.27-12.19-12.55c0-7.46,5.27-12.75,12.19-12.75S592.94,7,592.94,14.5Zm-1.82,27.66V139H570.38V42.16Z"/><path class="cls-1" d="M780.56,78.75V139H759.63V84.57c0-14.74-8.74-23.66-22.94-23.66-16.56.54-26.57,13.29-26.57,30.21V139H689.19V84.57c0-14.74-8.55-23.66-22.75-23.66-16.74.54-26.94,13.29-26.94,30.21V139H618.75V42.16H639.5V60.91c6.74-13.65,19.12-19.48,35.13-19.48,17.29,0,29.12,8.56,33.67,23.3,6.19-16.2,19.11-23.3,36.77-23.3C767.27,41.43,780.56,55.63,780.56,78.75Z"/><path class="cls-1" d="M908.48,90.94c0,28.94-18.2,48.78-45.86,48.78-15.48,0-27.13-6.19-34.23-17.47V174.3H807.47V42.16h20.92V58.9c7.1-11.28,18.75-17.47,33.86-17.47C889.73,41.43,908.48,61.45,908.48,90.94Zm-21.11-.73c0-18-12.2-31.31-29.48-31.31S828.39,72,828.39,90.21c0,18.75,12.2,31.68,29.5,31.68S887.37,108.78,887.37,90.21Z"/><path class="cls-1" d="M983.69,41.43v20c-19.48-1.09-31.85,10.38-33.49,27V139H929.27V42.16H950.2V61.45C956.75,48.35,968.4,41.43,983.69,41.43Z"/><path class="cls-1" d="M1092.24,90.58c0,29.12-20.56,49.14-50.42,49.14-30,0-50.59-20-50.59-49.14,0-29.31,20.57-49.15,50.59-49.15C1071.68,41.43,1092.24,61.27,1092.24,90.58Zm-80.08.18c0,18.75,12.19,31.49,29.66,31.49,17.3,0,29.5-12.74,29.5-31.49,0-18.57-12.2-31.31-29.5-31.31C1024.35,59.45,1012.16,72.19,1012.16,90.76Z"/><path class="cls-1" d="M1117.47,42.16l26.94,76.26L1171,42.16h20.93L1154.78,139h-21.66l-37.49-96.83Z"/><path class="cls-1" d="M1274.86,108.78l12.19,11.28c-10.92,13.29-25.12,19.66-41.86,19.66-29.85,0-50.42-19.84-50.42-49.14,0-28.39,18.75-48.78,48.6-49.15,26.39-.36,44.05,15.84,45.69,42.23l-70.45,21.11c4.74,11.29,14.75,18.2,27.86,18.2C1257.2,123,1267,118.06,1274.86,108.78Zm-59.16-19.3v.18l53.15-15.83c-4.55-10.92-12.74-15.47-24.21-15.47C1227,58.36,1215.7,69.28,1215.7,89.48Z"/><path class="cls-1" d="M1451.22,3.94V139H1430.3V122.43c-6.92,11.29-18.57,17.47-34,17.47-27.85,0-46.41-20.2-46.41-49.69,0-29.12,18.74-49,46-49,15.66,0,27.31,6.37,34.41,17.65v-55Zm-20.92,87c0-18.75-12.2-31.85-29.68-31.85S1371,72.38,1370.78,90.94c.18,18.38,12.19,31.49,29.84,31.49C1418.1,122.43,1430.3,109.32,1430.3,90.94Z"/><path class="cls-1" d="M1502.16,14.5c0,7.28-5.29,12.55-12.2,12.55s-12.2-5.27-12.2-12.55c0-7.46,5.28-12.75,12.2-12.75S1502.16,7,1502.16,14.5Zm-1.82,27.66V139h-20.76V42.16Z"/><path class="cls-1" d="M1616.82,42.16v87.37c0,27.84-19.84,45.68-50.23,45.5-17.66-.18-33.86-8.74-41.14-22.57l11.29-13.1c6.37,10.55,16.56,17.83,28.94,18.2,18.38.18,30.4-10.74,30.4-27.49V117.88c-6.56,10.55-17.48,16.38-32,16.38-26.21,0-43.68-18.93-43.68-46.78,0-27.12,17.28-45.87,43-46.05,14.92-.18,26,5.83,32.77,16.39V42.16ZM1596.08,88c-.19-17.48-11.47-29.67-27.86-29.67-16.56,0-28,12.37-28.21,29.67.18,17.47,11.47,29.85,28.21,29.85C1584.61,117.88,1595.89,105.5,1596.08,88Z"/><path class="cls-1" d="M1666.42,14.5c0,7.28-5.28,12.55-12.2,12.55S1642,21.78,1642,14.5c0-7.46,5.28-12.75,12.19-12.75S1666.42,7,1666.42,14.5Zm-1.82,27.66V139h-20.75V42.16Z"/><path class="cls-1" d="M1741.65,132.8c-7.65,4.55-15.84,7.1-23.3,7.1-15.29,0-27.67-10.55-27.67-31.67v-89h20.75V45.8H1740V61.45h-28.58v43.14c0,11.47,3.82,16.38,10.74,16.38,3.82,0,8.56-1.45,14.2-4.18Z"/><path class="cls-1" d="M1850.72,42.16V139H1830V122.61c-7.1,11.11-18.57,17.29-33.86,17.29-27.84,0-46.41-20.2-46.41-49.69,0-28.94,18.38-48.78,45.68-49,15.66-.18,27.49,6,34.59,17.29V42.16ZM1830,94.4V87.3c-1.64-16.75-13.11-28.21-29.49-28.21-17.47,0-29.66,13.29-29.85,31.85.19,18.38,12.2,31.49,29.85,31.49C1816.87,122.43,1828.34,111,1830,94.4Z"/><path class="cls-1" d="M1907.44,120.79c2.91,0,6-1.09,9.65-3.09l2.91,17.1a37.36,37.36,0,0,1-18.2,5.1c-13.47,0-24-9.65-24-28.21V3.94h20.75V109.51C1898.52,117.33,1902,120.79,1907.44,120.79Z"/><path class="cls-1" d="M402.94,180.29H318.47v91h-91V180.44l91-.15V89h0v.15h-91v91.14h-91V89h91V1.77A203,203,0,0,0,202.07,0C90.47,0,0,90.47,0,202.07S90.47,404.15,202.07,404.15s202.08-90.47,202.08-202.08A206.15,206.15,0,0,0,402.94,180.29Z"/><path class="cls-1" d="M755.3,311.77c0,53.9-42.59,94.38-99.64,94.38S556,365.67,556,311.77c0-53.63,42.59-93.33,99.64-93.33S755.3,258.4,755.3,311.77ZM605.45,312c0,30,23.4,53.1,50.74,53.1,27.6,0,49.69-23.13,49.69-53.1s-22.09-52.58-49.69-52.58S605.45,282.06,605.45,312Z"/><path class="cls-1" d="M901.35,404.05l-26.82-51H838.78v51H790.67V219.75h82.81c48.9,0,76.77,23.66,76.77,64.68,0,27.87-11.57,48.37-32.87,59.41l38.39,60.21Zm-62.57-89.39h35c19.45,0,30.76-10,30.76-28.65,0-18.14-11.31-27.87-30.76-27.87h-35Z"/><path class="cls-1" d="M1039,219.75v184.3H990.92V219.75Z"/><path class="cls-1" d="M1208.1,309.93h41.54v72.56c-19.71,13.68-51,23.66-76.77,23.66-56.25,0-98.58-40.48-98.58-94.11s43.37-93.6,101.74-93.6c27.61,0,56.79,10.52,75.72,27.34l-27.35,33.65c-13.14-12.35-31.81-20.24-48.63-20.24-29.71,0-52.06,22.87-52.06,52.85,0,30.23,22.61,53.1,52.59,53.1,9.19,0,20.76-3.16,31.8-8.68Z"/><path class="cls-1" d="M1340.69,219.75v184.3h-48.11V219.75Z"/><path class="cls-1" d="M1429.47,219.75l83.61,111V219.75h44.69v184.3h-42.06L1432.1,293.63V404.05h-45V219.75Z"/></svg>