<svg id="Calque_1" data-name="Calque 1" xmlns="http://www.w3.org/2000/svg" viewBox="0 0 1920 350.35"><defs><style>.cls-1{fill:#fff;}</style></defs><g id="Groupe_2" data-name="Groupe 2"><g id="Groupe_3" data-name="Groupe 3"><path id="Tracé_1" data-name="Tracé 1" class="cls-1" d="M784.79,223.05v84.39A20.88,20.88,0,0,1,764.65,329c-.49,0-1,0-1.49,0a22.58,22.58,0,0,1-20.66-21.6A94,94,0,0,1,678.78,329,105.91,105.91,0,0,1,569.84,226.25c0-1.07,0-2.13,0-3.2a108.32,108.32,0,0,1,107.63-109h1.36a105.84,105.84,0,0,1,106,105.64c0,1.12,0,2.24,0,3.36m-42.28,0A65.14,65.14,0,0,0,679,156.33h-.21a67.68,67.68,0,0,0-66.73,66.72,65.13,65.13,0,0,0,66.52,63.72h.21A62.77,62.77,0,0,0,742.51,225c0-.65,0-1.29,0-1.93"/><path id="Tracé_2" data-name="Tracé 2" class="cls-1" d="M987.16,307.75A21.55,21.55,0,0,1,966,329.37H832.1a21.65,21.65,0,0,1-19.4-12,20.81,20.81,0,0,1,2.21-22.87L922.63,155.85H831.32a21.55,21.55,0,0,1-21.14-21.65,21.13,21.13,0,0,1,21.14-21.13H965.23a20.81,20.81,0,0,1,19.39,12,20.09,20.09,0,0,1-2.21,22.39L874.68,286.56H966a21.15,21.15,0,0,1,21.14,21.14"/><path id="Tracé_3" data-name="Tracé 3" class="cls-1" d="M1213.66,221.16a21.26,21.26,0,0,1-21.36,21.14H1043.46a65.46,65.46,0,0,0,62,44.32,84,84,0,0,0,48.27-14.24,20.51,20.51,0,0,1,27.72,8.54c.24.45.46.92.67,1.39a22.39,22.39,0,0,1-10.4,28.39,105.38,105.38,0,0,1-66.41,18.45,108,108,0,0,1,0-216.08,106.06,106.06,0,0,1,108.36,103.72c0,1.44,0,2.88,0,4.32m-170.07-21.56h124.48a63.1,63.1,0,0,0-62.45-44,66.06,66.06,0,0,0-62,44"/><path id="Tracé_4" data-name="Tracé 4" class="cls-1" d="M1368.71,134.71a21.64,21.64,0,0,1-21.59,21.62,65.49,65.49,0,0,0-65.46,65.46v86.59a21.37,21.37,0,1,1-42.74.05V221.79a108.11,108.11,0,0,1,108-108,21,21,0,0,1,21.76,20.33c0,.22,0,.43,0,.65"/><path id="Tracé_5" data-name="Tracé 5" class="cls-1" d="M1394.1,308.23V134.72a21.38,21.38,0,0,1,42.75,0V308.23a21.38,21.38,0,1,1-42.75,0v0"/><path id="Tracé_6" data-name="Tracé 6" class="cls-1" d="M1462.25,221.16a108.05,108.05,0,1,1,108,108h0a108.1,108.1,0,0,1-108-108m42.58,0a65.46,65.46,0,1,0,65.46-65.46,65.45,65.45,0,0,0-65.46,65.46"/><path id="Tracé_7" data-name="Tracé 7" class="cls-1" d="M1920,221.16v86.59a21.37,21.37,0,1,1-42.74.05V221.16a65.46,65.46,0,0,0-130.92,0v86.59a21.37,21.37,0,1,1-42.74.05V221.16a108.21,108.21,0,1,1,216.41,0"/><path id="Tracé_8" data-name="Tracé 8" class="cls-1" d="M1400.57,82.82a21.77,21.77,0,0,1-6.47-15.14,22.12,22.12,0,0,1,6.47-15.15,21,21,0,0,1,29.64-.64c.22.21.43.42.64.64a21.39,21.39,0,0,1,6,15.15,22.29,22.29,0,0,1-6,15.14,22.12,22.12,0,0,1-30.28,0"/><path id="Tracé_9" data-name="Tracé 9" class="cls-1" d="M385.84,224.4c.52.67.89,1.12,1.19,1.56a64.63,64.63,0,0,1,10.78,30.1,57.75,57.75,0,0,1-4.24,27.43A72.29,72.29,0,0,1,358.79,321a73.94,73.94,0,0,1-39.54,8.26,72.81,72.81,0,0,1-43.14-16.95,38.09,38.09,0,0,1-3.19-2.9,134.48,134.48,0,0,1-36.19-68.19,137.12,137.12,0,0,1-2.68-27.56v-38.1a59.3,59.3,0,0,0-4.31-22.67,58.65,58.65,0,0,0-111.63,9.51,56.34,56.34,0,0,0-1.19,15.27c.07,1.33.15,2.68.15,4-.67.29-.81-.15-1-.45a115.49,115.49,0,0,1-7.66-12.78A111.71,111.71,0,0,1,97.21,133,98.3,98.3,0,0,1,109.7,68.81a113.54,113.54,0,0,1,62.13-51.29,111.76,111.76,0,0,1,25.44-5.94A116.22,116.22,0,0,1,226,11.8a111,111,0,0,1,33.29,9.74c2.3,1.12,4.53,2.3,6.68,3.57a175.35,175.35,0,0,1,80,111.16A173.12,173.12,0,0,1,350,166.52c.14,3.78.29,7.58.29,11.36.07,11.82.14,23.56.22,35.38a24.48,24.48,0,0,0,.59,5.72,18.11,18.11,0,0,0,14.43,14,18.36,18.36,0,0,0,18.72-6.61,9.45,9.45,0,0,0,.59-.82,8.66,8.66,0,0,0,1-1.12"/><path id="Tracé_10" data-name="Tracé 10" class="cls-1" d="M206.17,3c-.74.07-1.48.15-2.22.15A138.69,138.69,0,0,0,185.63,4.8,124.52,124.52,0,0,0,98.1,65.52a111.88,111.88,0,0,0-13.52,67.41A122.63,122.63,0,0,0,119.44,205a126.2,126.2,0,0,0,25.34,20,57.2,57.2,0,0,0,25.94,8.4,57.85,57.85,0,0,0,41.56-12.94c2.52-2,4.91-4.07,7.36-6.16a15.71,15.71,0,0,1,1.34-1c.59.37.45.81.45,1.19,0,2.75.07,5.58,0,8.33a86.66,86.66,0,0,0,1.26,14.56,147.88,147.88,0,0,0,41.63,81.9c1.26,1.35,2.6,2.61,3.86,3.94a169.49,169.49,0,0,1-45.72,20.59,175.33,175.33,0,0,1-78,3.79,171.08,171.08,0,0,1-74.07-32.18A175.2,175.2,0,0,1,100.53,16.62,171.31,171.31,0,0,1,206.17,3"/><path id="Tracé_11" data-name="Tracé 11" class="cls-1" d="M310,335.89c2,.37,3.94.74,5.8,1a80.34,80.34,0,0,0,40.8-3.64A82.9,82.9,0,0,0,403.75,292a68.72,68.72,0,0,0,7.65-31.55,73,73,0,0,0-7.12-31.73,85.35,85.35,0,0,0-19.47-26.17,56.37,56.37,0,0,1-17.24-29.65,58.36,58.36,0,0,1,98.23-54.39,134.26,134.26,0,0,1,36.94,69.2,118.75,118.75,0,0,1,2.53,25.57c-.09,4.68,0,9.43-.45,14.11a134.8,134.8,0,0,1-7.36,32.93,136.38,136.38,0,0,1-95.66,86,134.85,134.85,0,0,1-40.87,3.57,132.59,132.59,0,0,1-48.85-12.55c-.75-.3-1.63-.45-2-1.42"/></g></g></svg>